<?xml version="1.0" standalone="no"?>
<!DOCTYPE svg PUBLIC "-//W3C//DTD SVG 20010904//EN"
 "http://www.w3.org/TR/2001/REC-SVG-20010904/DTD/svg10.dtd">
<svg version="1.0" xmlns="http://www.w3.org/2000/svg"
 width="2250.000000pt" height="2250.000000pt" viewBox="0 0 2250.000000 2250.000000"
 preserveAspectRatio="xMidYMid meet">
<metadata>
Created by potrace 1.14, written by Peter Selinger 2001-2017
</metadata>
<g transform="translate(0.000000,2250.000000) scale(0.100000,-0.100000)"
fill="#000000" stroke="none">
<path d="M2810 19488 c-58 -22 -114 -44 -125 -49 -11 -5 -49 -20 -85 -33 -87
-31 -356 -133 -400 -151 -19 -8 -116 -44 -215 -81 -99 -36 -207 -77 -240 -89
-33 -13 -177 -67 -320 -120 -143 -53 -269 -100 -280 -105 -11 -5 -155 -59
-320 -120 -165 -61 -309 -115 -320 -120 -11 -5 -90 -35 -175 -65 -305 -111
-330 -123 -330 -154 0 -10 24 -54 53 -97 119 -176 1112 -1660 1729 -2584 408
-611 669 -993 688 -1007 35 -25 73 -22 129 9 65 37 453 253 602 335 162 89
182 98 202 86 13 -7 -101 -169 -350 -499 -12 -16 -38 -51 -59 -79 -20 -27 -65
-86 -99 -130 -90 -117 -103 -149 -84 -204 6 -16 252 -351 547 -745 295 -394
647 -863 782 -1043 135 -181 250 -335 257 -343 16 -21 333 -445 563 -755 106
-143 225 -303 264 -355 120 -160 136 -167 237 -95 100 70 157 111 254 180 50
35 126 89 170 119 92 63 178 122 357 247 115 81 154 100 171 83 3 -3 -6 -24
-20 -46 -24 -40 -232 -358 -253 -388 -138 -202 -475 -722 -481 -743 -16 -56
-9 -68 134 -247 32 -40 460 -584 506 -644 30 -38 60 -76 67 -85 7 -9 36 -45
64 -81 28 -36 56 -72 63 -80 7 -8 72 -91 145 -185 73 -93 138 -177 145 -185
22 -27 406 -518 580 -743 93 -120 181 -224 196 -231 45 -23 51 -18 247 190 72
76 151 160 175 185 24 25 114 120 199 209 85 90 173 182 195 206 22 23 108
113 191 200 84 88 171 181 195 209 24 27 59 65 77 85 l34 35 -6 -80 c-3 -44
-8 -89 -10 -100 -2 -11 -7 -42 -10 -70 -15 -120 -18 -142 -23 -170 -2 -16 -6
-48 -9 -70 -2 -22 -6 -56 -9 -75 -2 -19 -9 -69 -14 -110 -6 -41 -12 -91 -15
-110 -9 -61 -25 -183 -31 -235 -3 -27 -8 -63 -10 -80 -9 -56 -16 -110 -19
-140 -2 -16 -11 -86 -20 -155 -9 -69 -19 -143 -22 -165 -2 -22 -7 -51 -9 -65
-2 -14 -7 -50 -10 -80 -3 -30 -8 -66 -11 -80 -2 -14 -6 -41 -9 -60 -9 -74 -17
-136 -20 -160 -2 -14 -7 -45 -10 -70 -3 -25 -8 -56 -10 -70 -2 -14 -7 -51 -10
-83 -4 -32 -8 -66 -10 -75 -1 -9 -6 -42 -10 -72 -3 -30 -8 -66 -10 -80 -2 -14
-7 -45 -10 -70 -3 -25 -10 -72 -15 -105 -5 -33 -12 -82 -15 -110 -3 -27 -9
-75 -14 -105 -9 -58 -8 -123 4 -159 6 -21 92 -128 221 -277 29 -32 98 -113
154 -179 56 -66 114 -133 129 -150 14 -16 148 -172 296 -345 148 -173 362
-423 475 -555 112 -132 214 -251 225 -264 11 -14 27 -32 35 -41 8 -9 38 -43
65 -75 55 -66 94 -112 110 -129 6 -6 49 -56 95 -111 104 -124 253 -298 260
-305 3 -3 41 -48 85 -100 44 -52 82 -97 85 -100 3 -3 30 -34 60 -70 30 -36 57
-67 60 -70 3 -3 70 -81 150 -175 79 -93 152 -179 162 -189 10 -11 18 -22 18
-25 0 -3 16 -17 35 -30 33 -22 36 -23 59 -7 21 13 148 159 311 355 16 20 59
70 95 111 36 42 88 102 115 134 28 33 82 96 120 141 39 45 102 119 140 165 39
45 75 88 80 94 21 23 82 94 126 147 60 71 185 217 213 249 12 14 205 241 430
505 225 264 421 494 435 510 15 17 65 75 111 130 47 55 89 105 95 111 5 6 30
35 55 64 48 58 107 127 127 148 7 7 29 34 50 60 21 26 44 53 51 61 40 42 151
179 162 200 15 30 14 98 -3 206 -4 22 -9 60 -12 85 -3 25 -8 56 -10 70 -5 32
-12 81 -20 145 -3 28 -10 75 -15 105 -5 30 -12 78 -15 105 -3 28 -8 61 -10 75
-7 52 -17 116 -20 140 -2 14 -6 43 -9 65 -3 22 -9 63 -12 90 -3 28 -8 57 -9
66 -2 9 -6 40 -10 70 -3 30 -10 79 -15 109 -5 30 -12 79 -15 109 -4 30 -8 61
-10 70 -1 9 -6 45 -10 81 -4 36 -8 67 -10 70 -1 3 -6 32 -9 65 -4 33 -9 71
-11 85 -2 14 -7 45 -10 70 -4 25 -8 56 -10 70 -2 14 -9 63 -15 110 -6 47 -13
96 -15 110 -2 14 -6 45 -10 70 -5 41 -11 84 -20 150 -2 14 -7 49 -10 79 -4 30
-8 61 -10 70 -1 9 -6 43 -10 76 -4 32 -9 68 -11 80 -2 11 -6 43 -9 70 -3 28
-7 59 -9 70 -2 11 -7 46 -11 79 -3 32 -9 69 -11 83 -4 21 -2 23 14 14 10 -5
83 -78 162 -162 80 -83 168 -175 195 -204 28 -28 115 -120 195 -204 80 -84
165 -174 190 -200 65 -68 276 -294 351 -375 127 -137 160 -166 195 -166 42 0
42 0 319 355 98 127 182 232 185 235 3 3 27 34 55 70 27 36 55 72 62 80 7 8
76 96 154 195 78 99 154 196 169 215 16 19 51 64 80 100 28 36 56 72 63 80 7
8 39 49 72 90 32 41 100 127 150 190 50 63 156 196 234 295 78 99 150 189 159
200 118 142 212 268 222 296 17 46 4 88 -52 175 -25 38 -92 141 -150 229 -57
88 -107 167 -111 175 -8 16 -331 519 -345 535 -4 6 -11 17 -15 25 -4 8 -22 38
-41 67 -31 46 -33 52 -16 56 20 5 68 -15 96 -42 11 -9 48 -37 84 -61 35 -25
71 -50 80 -57 8 -7 94 -68 190 -137 168 -120 307 -221 462 -334 40 -29 81 -55
93 -58 48 -12 73 13 255 258 100 134 192 257 205 273 13 17 149 199 304 405
154 206 284 380 288 385 5 6 152 201 328 435 330 440 1111 1477 1177 1565 51
67 62 108 41 149 -14 26 -67 100 -83 116 -3 3 -30 39 -60 80 -30 41 -62 84
-72 95 -9 11 -80 106 -157 210 -78 105 -147 197 -154 205 -59 72 -89 123 -77
130 21 13 47 1 238 -112 102 -59 187 -108 190 -108 3 0 22 -11 41 -24 118 -78
365 -217 391 -220 23 -3 40 4 61 22 17 13 142 192 278 396 549 822 911 1362
919 1371 4 6 89 132 189 280 203 304 411 612 885 1315 168 249 196 295 192
318 -1 6 -2 16 -3 22 -2 19 -4 19 -576 235 -126 47 -234 88 -240 89 -5 2 -17
6 -25 9 -8 4 -242 92 -520 196 -278 105 -554 209 -615 231 -114 44 -198 75
-350 134 -594 229 -610 233 -679 201 -17 -8 -57 -39 -87 -68 -68 -63 -261
-243 -298 -276 -14 -13 -60 -56 -102 -95 -70 -66 -267 -249 -333 -309 -44 -40
-243 -225 -309 -287 -93 -86 -107 -99 -217 -200 -57 -52 -120 -111 -141 -130
-74 -70 -245 -227 -270 -251 -39 -36 -209 -192 -250 -230 -56 -52 -220 -204
-254 -235 -16 -14 -59 -54 -95 -88 -140 -131 -307 -286 -359 -332 -30 -27 -69
-62 -86 -79 -50 -46 -245 -227 -275 -255 -15 -14 -71 -65 -125 -115 -54 -49
-109 -101 -124 -114 -14 -13 -78 -72 -141 -131 -63 -59 -137 -128 -165 -153
-27 -25 -71 -65 -96 -89 -25 -23 -86 -80 -136 -125 -49 -45 -105 -97 -124
-115 -20 -18 -84 -78 -144 -133 -59 -55 -124 -115 -144 -134 -20 -18 -63 -58
-96 -88 -33 -31 -107 -99 -164 -152 -57 -53 -118 -109 -136 -126 -277 -256
-383 -355 -420 -390 -37 -35 -236 -219 -280 -259 -16 -15 -73 -67 -125 -116
-52 -49 -108 -101 -125 -116 -16 -15 -86 -80 -155 -144 -215 -201 -234 -215
-267 -203 -28 11 -37 25 -168 268 -26 50 -56 104 -65 120 -10 17 -36 64 -57
105 -45 85 -97 180 -123 225 -10 17 -37 66 -60 110 -23 44 -55 103 -70 130
-15 28 -43 79 -63 115 -19 36 -139 256 -267 490 -128 234 -248 454 -267 490
-220 406 -245 447 -281 467 -36 20 -54 20 -1252 19 -668 -1 -1226 -6 -1240
-10 -31 -11 -6 18 -322 -368 -152 -185 -286 -347 -297 -360 -61 -72 -181 -221
-182 -227 0 -3 -2 -15 -4 -26 -4 -20 1 -20 886 -20 490 0 892 -2 894 -6 4 -5
-11 -29 -170 -274 -173 -268 -613 -950 -645 -999 -19 -30 -66 -104 -103 -163
-213 -335 -219 -343 -261 -343 -13 1 -65 43 -137 113 -64 62 -135 128 -157
147 -21 19 -86 78 -143 131 -57 53 -116 107 -130 120 -58 52 -224 206 -258
238 -20 18 -76 70 -125 115 -49 44 -101 92 -116 106 -15 14 -73 68 -130 120
-57 52 -119 110 -139 129 -20 18 -74 68 -120 110 -46 42 -102 93 -125 115 -22
21 -81 75 -130 120 -49 44 -101 92 -116 106 -15 14 -71 66 -124 115 -54 50
-110 101 -125 115 -15 14 -78 72 -141 130 -63 58 -121 112 -130 120 -9 8 -65
60 -126 115 -60 55 -121 111 -135 125 -14 14 -65 61 -114 105 -48 44 -99 91
-114 105 -15 14 -78 72 -141 130 -63 58 -124 114 -136 125 -11 11 -45 42 -75
69 -30 28 -108 100 -174 160 -66 61 -144 134 -174 161 -30 28 -66 61 -81 75
-71 66 -234 216 -250 230 -10 9 -62 57 -117 107 -54 50 -111 104 -128 119 -16
15 -78 72 -137 126 -59 55 -116 107 -126 116 -16 14 -160 147 -252 232 -15 14
-76 70 -135 125 -60 55 -121 111 -136 125 -15 14 -73 68 -130 120 -57 52 -113
104 -124 115 -12 11 -66 61 -120 110 -54 50 -110 101 -125 115 -15 14 -71 66
-124 115 -54 50 -115 106 -136 125 -21 19 -77 72 -126 116 -49 45 -105 97
-125 115 -20 19 -82 77 -139 129 -57 52 -118 109 -136 125 -135 126 -149 135
-196 134 -18 0 -80 -19 -138 -41z"/>
</g>
</svg>
